<svg width="186" height="186" viewBox="0 0 186 186" fill="none" xmlns="http://www.w3.org/2000/svg">
<path d="M186 93C186 144.363 144.363 186 93 186C41.6374 186 0 144.363 0 93C0 41.6374 41.6374 0 93 0C144.363 0 186 41.6374 186 93ZM82.2427 142.243L151.243 73.2427C153.586 70.8997 153.586 67.1006 151.243 64.7576L142.758 56.2725C140.415 53.9291 136.615 53.9291 134.272 56.2725L78 112.544L51.7279 86.2721C49.3849 83.9291 45.5858 83.9291 43.2424 86.2721L34.7572 94.7573C32.4142 97.1003 32.4142 100.899 34.7572 103.242L73.7573 142.242C76.1006 144.586 79.8994 144.586 82.2427 142.243V142.243Z" fill="#78B269"/>
</svg>
